<?xml version="1.0" standalone="no"?>
<!DOCTYPE svg PUBLIC "-//W3C//DTD SVG 20010904//EN"
 "http://www.w3.org/TR/2001/REC-SVG-20010904/DTD/svg10.dtd">
<svg version="1.0" xmlns="http://www.w3.org/2000/svg"
 width="4500.000000pt" height="4501.000000pt" viewBox="0 0 4500.000000 4501.000000"
 preserveAspectRatio="xMidYMid meet">

<g transform="translate(0.000000,4501.000000) scale(0.100000,-0.100000)"
fill="#000000" stroke="none">
<path d="M25155 28278 c-2 -7 -33 -96 -68 -198 -36 -102 -113 -309 -172 -460
-155 -397 -189 -490 -271 -735 l-73 -220 -1858 -3 -1859 -2 -187 -518 c-103
-285 -187 -523 -187 -530 0 -9 409 -13 1853 -14 l1854 -3 -43 -120 c-392
-1094 -559 -1559 -802 -2230 -160 -440 -357 -987 -438 -1215 l-148 -415 -105
-100 c-58 -55 -228 -219 -376 -365 -536 -526 -818 -753 -1110 -896 -121 -59
-276 -104 -360 -104 -61 0 -83 18 -92 73 -14 89 25 217 477 1566 246 735 500
1488 564 1674 99 290 263 796 350 1085 l24 82 -822 0 -822 0 -17 -48 c-10 -26
-55 -145 -101 -266 l-83 -218 -58 84 c-73 104 -207 244 -306 318 -134 100
-324 185 -514 231 -104 24 -317 49 -427 49 -466 0 -1040 -243 -1568 -665 -441
-352 -867 -853 -1203 -1415 -228 -382 -445 -908 -562 -1363 l-34 -132 -153
-148 c-434 -418 -707 -639 -958 -775 -149 -81 -315 -132 -428 -132 -39 0 -53
5 -73 26 -22 24 -24 33 -23 122 1 161 60 359 295 994 499 1348 612 1681 733
2164 117 472 153 906 90 1114 -68 226 -232 324 -544 322 -202 0 -370 -47 -605
-167 -500 -254 -1049 -720 -1660 -1405 -128 -144 -271 -314 -507 -605 -81 -99
-217 -261 -303 -360 -243 -279 -566 -655 -604 -703 -18 -24 -35 -41 -37 -39
-5 5 115 293 320 770 203 471 284 677 411 1037 160 455 180 539 180 750 0 139
-1 148 -29 207 -47 104 -123 160 -262 199 -80 22 -381 31 -508 15 -383 -49
-741 -246 -978 -540 -81 -101 -99 -129 -283 -456 -383 -681 -759 -1258 -1221
-1878 -186 -247 -234 -355 -234 -517 0 -87 11 -134 43 -181 75 -111 218 -125
392 -39 177 87 305 229 616 678 127 182 232 332 233 332 10 0 -263 -909 -429
-1430 -240 -749 -401 -1198 -605 -1680 -44 -106 -80 -194 -78 -195 2 -2 311
-5 687 -6 l684 -3 27 39 c400 591 682 993 1268 1800 705 971 1123 1502 1442
1829 179 184 301 276 366 276 38 0 64 -34 64 -83 0 -94 -86 -342 -304 -885
-186 -459 -363 -959 -441 -1242 -106 -387 -149 -786 -111 -1040 39 -256 155
-476 300 -568 147 -92 432 -135 761 -112 352 24 620 87 908 215 348 156 970
596 1385 981 61 57 104 90 106 82 2 -7 13 -60 25 -118 120 -567 474 -985 956
-1126 132 -39 354 -45 512 -15 461 88 1062 470 1624 1033 83 82 152 148 153
146 1 -1 12 -75 25 -164 51 -373 106 -522 271 -727 152 -189 332 -295 532
-312 91 -8 402 10 523 30 260 45 527 158 940 400 362 212 717 483 1064 810
l74 70 -6 -35 c-4 -19 -11 -73 -16 -120 -39 -338 -14 -545 95 -768 45 -94 67
-126 123 -182 159 -159 427 -226 798 -200 574 40 1014 227 1688 718 277 202
509 397 787 663 97 93 179 166 181 162 3 -5 17 -50 31 -102 54 -187 159 -422
261 -586 346 -552 783 -816 1436 -866 434 -34 852 73 1364 348 584 314 1077
694 1681 1298 317 317 781 840 929 1050 91 128 716 925 726 925 19 0 171 -337
261 -580 109 -293 209 -711 254 -1060 22 -174 30 -509 15 -650 -39 -374 -164
-631 -349 -722 -64 -32 -71 -33 -187 -33 -106 0 -126 3 -168 24 -26 12 -60 39
-75 58 -50 67 -44 158 40 578 36 182 39 211 35 315 -10 257 -79 328 -330 338
-398 16 -697 -122 -821 -381 -69 -141 -81 -197 -81 -372 1 -124 4 -165 23
-235 30 -112 116 -287 187 -380 229 -300 489 -448 885 -506 92 -13 160 -15
345 -11 367 9 564 39 827 127 538 179 987 434 1683 955 446 335 714 574 1262
1129 499 504 575 596 624 759 30 97 24 208 -14 265 -98 149 -344 107 -627
-107 -58 -43 -247 -211 -421 -372 -173 -162 -376 -350 -450 -419 -289 -268
-652 -576 -658 -558 -2 6 2 75 9 152 10 111 10 171 1 283 -24 287 -90 514
-231 798 -298 599 -695 1029 -1285 1392 -49 31 -92 57 -94 59 -2 1 42 54 96
116 556 631 872 1157 949 1578 14 78 15 105 6 167 -27 173 -143 302 -344 383
-243 96 -492 47 -803 -157 -467 -308 -869 -896 -1025 -1504 -27 -105 -33 -148
-37 -280 -6 -173 7 -266 54 -387 14 -37 26 -76 27 -87 0 -13 -186 -268 -493
-675 l-495 -655 -335 -335 c-459 -458 -692 -659 -1001 -865 -411 -272 -722
-396 -1074 -426 -210 -18 -374 9 -532 87 -334 164 -550 516 -580 944 -5 77 8
276 19 287 2 1 52 -23 112 -53 219 -109 356 -138 655 -139 312 0 550 35 793
116 303 101 522 240 750 478 299 313 493 666 574 1050 25 115 27 145 27 356 1
218 -1 236 -28 350 -35 150 -64 231 -131 370 -269 555 -739 776 -1521 715
-525 -41 -924 -171 -1316 -429 -583 -382 -1005 -911 -1273 -1591 -147 -371
-222 -725 -261 -1227 l-6 -82 -177 -173 c-609 -597 -1064 -899 -1391 -925 -67
-5 -77 -3 -93 15 -28 31 -31 83 -12 189 21 117 324 1023 1173 3513 l589 1725
744 5 744 5 192 515 c105 283 192 521 192 528 1 9 -157 12 -755 12 -716 0
-756 1 -749 18 25 64 157 453 234 687 51 154 139 422 197 596 57 173 104 318
104 322 0 4 -365 7 -810 7 -640 0 -812 -3 -815 -12z m-5761 -4478 c199 -51
341 -201 401 -425 42 -158 27 -393 -40 -639 -87 -318 -333 -838 -598 -1266
-488 -788 -1018 -1367 -1442 -1576 -123 -60 -196 -77 -314 -72 -82 3 -106 8
-163 35 -51 24 -73 41 -93 73 -128 203 -24 796 285 1625 148 397 302 750 429
987 386 715 780 1139 1162 1252 110 33 260 35 373 6z m9555 5 c160 -38 325
-163 372 -281 35 -88 33 -237 -5 -354 -134 -409 -488 -818 -926 -1070 -305
-174 -571 -221 -827 -145 -51 15 -53 17 -53 50 0 59 67 299 126 453 113 292
228 519 374 737 140 209 278 357 435 470 198 141 336 179 504 140z"/>
<path d="M31097 26618 c-306 -898 -557 -1636 -557 -1640 0 -5 136 -8 303 -8
l302 0 1045 1602 c575 881 1055 1619 1068 1640 l23 38 -813 0 -813 0 -558
-1632z"/>
<path d="M35246 26055 c-105 -27 -184 -73 -272 -160 -63 -62 -89 -97 -117
-155 -78 -165 -75 -343 9 -517 66 -138 214 -257 370 -298 75 -20 210 -19 288
1 254 65 436 299 436 560 0 253 -153 468 -391 551 -93 32 -236 40 -323 18z
m95 -111 c20 -25 0 -44 -71 -69 -80 -26 -134 -60 -202 -125 -29 -27 -56 -50
-60 -50 -4 0 -12 9 -18 20 -27 50 86 158 227 216 68 28 105 30 124 8z"/>
<path d="M36146 25001 c-290 -96 -379 -446 -168 -664 156 -162 411 -162 568 0
149 153 147 411 -5 563 -104 104 -263 145 -395 101z"/>
<path d="M34818 24605 c-290 -55 -526 -277 -594 -562 -22 -88 -22 -247 -1
-335 66 -272 284 -490 555 -554 88 -21 247 -21 337 0 39 9 113 38 165 63 80
40 109 61 185 137 150 150 217 309 218 516 0 133 -19 216 -80 340 -62 127
-187 254 -308 317 -152 79 -324 107 -477 78z m73 -135 c21 -12 26 -55 7 -66
-7 -4 -47 -20 -90 -35 -102 -35 -174 -79 -256 -156 -70 -66 -80 -71 -100 -51
-21 21 -13 55 26 102 66 81 185 159 302 197 65 21 85 23 111 9z"/>
<path d="M13418 18131 c-84 -27 -144 -66 -219 -141 -241 -241 -343 -757 -204
-1036 70 -143 182 -213 352 -222 145 -7 254 34 369 140 169 156 284 461 284
754 0 250 -83 416 -248 492 -77 36 -245 42 -334 13z m189 -281 c70 -42 104
-186 84 -353 -33 -277 -142 -468 -277 -483 -67 -7 -111 18 -144 82 -23 45 -25
58 -25 194 1 116 5 163 23 235 40 158 118 291 194 328 45 22 106 21 145 -3z"/>
<path d="M21760 18132 c-98 -33 -143 -63 -237 -157 -81 -82 -97 -105 -147
-206 -80 -163 -107 -276 -113 -464 -6 -170 7 -246 56 -343 58 -113 147 -186
266 -217 75 -19 221 -19 302 0 64 15 173 61 205 86 14 11 31 93 78 361 33 191
60 351 60 357 0 8 -70 11 -218 11 l-219 0 -17 -102 c-10 -57 -20 -115 -23
-130 l-5 -28 91 0 c90 0 91 0 86 -22 -3 -13 -14 -72 -25 -132 -11 -61 -26
-113 -32 -118 -25 -15 -119 -29 -151 -23 -80 18 -136 77 -157 167 -18 72 -7
263 19 356 44 152 130 280 214 321 84 41 189 22 243 -42 l26 -31 49 54 c27 30
72 81 100 112 l51 58 -51 49 c-74 72 -137 94 -281 98 -91 2 -126 -1 -170 -15z"/>
<path d="M10185 17449 c-159 -369 -291 -674 -293 -680 -2 -5 59 -9 150 -9
l153 0 50 128 51 127 155 3 156 2 7 -76 c3 -42 6 -101 6 -131 l0 -53 150 0
151 0 -6 73 c-7 91 -65 1202 -65 1251 l0 36 -187 0 -188 -1 -290 -670z m427
126 c1 -135 2 -264 3 -287 l0 -43 -119 -3 -119 -3 6 23 c14 52 213 558 219
558 5 0 9 -110 10 -245z"/>
<path d="M11235 18108 c-2 -7 -39 -211 -81 -453 -89 -504 -96 -591 -54 -699
56 -146 189 -226 377 -226 247 0 394 111 473 358 26 80 190 959 190 1016 0 14
-18 16 -144 16 l-144 0 -6 -27 c-3 -16 -38 -212 -76 -438 -39 -225 -78 -436
-87 -468 -29 -107 -100 -177 -178 -177 -87 0 -130 53 -128 159 0 37 35 260 77
498 42 237 76 437 76 442 0 17 -289 15 -295 -1z"/>
<path d="M12216 18008 c-11 -62 -21 -119 -24 -125 -3 -10 25 -13 122 -13 69 0
126 -1 126 -3 0 -2 -43 -247 -95 -545 -52 -298 -95 -546 -95 -552 0 -6 52 -10
145 -10 80 0 145 3 145 6 0 3 43 250 95 548 52 298 95 545 95 549 0 4 56 7
125 7 121 0 125 1 130 23 12 56 35 191 35 208 0 18 -14 19 -393 19 l-393 0
-18 -112z"/>
<path d="M14660 18115 c0 -3 -52 -303 -115 -666 -63 -364 -115 -668 -115 -676
0 -24 501 -13 580 12 106 33 172 75 255 159 117 118 177 246 210 447 42 262 0
486 -113 602 -102 105 -186 127 -484 127 -120 0 -218 -2 -218 -5z m432 -280
c23 -15 47 -46 65 -82 27 -55 28 -65 28 -193 0 -99 -5 -154 -19 -205 -39 -148
-122 -272 -209 -314 -51 -25 -187 -31 -187 -8 0 12 124 745 136 800 5 26 7 27
77 27 61 0 78 -4 109 -25z"/>
<path d="M15776 18093 c-3 -16 -56 -314 -116 -663 -60 -349 -112 -643 -114
-653 -4 -16 15 -17 332 -15 l336 3 23 130 c12 72 23 131 23 133 0 1 -88 2
-195 2 l-194 0 6 33 c4 17 16 86 27 152 l21 120 166 3 166 2 18 107 c9 59 19
113 22 120 4 10 -29 13 -161 13 -91 0 -166 3 -166 8 0 4 10 67 22 140 l23 132
177 0 c98 0 178 1 178 3 0 2 9 52 20 112 11 60 20 117 20 127 0 17 -18 18
-314 18 l-314 0 -6 -27z"/>
<path d="M16476 18013 c-9 -60 -20 -116 -22 -125 -5 -17 5 -18 121 -18 l127 0
-6 -27 c-12 -59 -186 -1061 -186 -1072 0 -8 45 -11 145 -11 80 0 145 3 145 7
0 4 43 251 95 549 52 298 95 545 95 548 0 3 56 6 125 6 121 0 125 1 130 23 12
56 35 191 35 208 0 18 -14 19 -393 19 l-393 0 -18 -107z"/>
<path d="M17318 17457 c-158 -364 -290 -670 -294 -680 -6 -16 4 -17 147 -15
l152 3 51 125 51 125 156 3 156 2 8 -130 7 -130 150 0 149 0 -5 43 c-3 23 -20
329 -38 680 l-32 637 -186 0 -185 0 -287 -663z m423 56 l2 -268 -117 -3 c-84
-2 -116 1 -116 9 0 7 48 137 107 291 79 204 109 273 115 259 4 -11 8 -140 9
-288z"/>
<path d="M18410 18116 c0 -2 -52 -301 -115 -665 -63 -363 -115 -667 -115 -676
0 -13 21 -15 144 -15 129 0 145 2 150 18 3 9 55 305 115 657 61 352 113 650
116 663 l5 22 -150 0 c-82 0 -150 -2 -150 -4z"/>
<path d="M18841 17468 c-62 -359 -115 -665 -118 -680 l-5 -28 330 0 331 0 6
33 c3 17 14 78 24 135 l18 102 -184 0 -185 0 5 23 c3 12 44 247 92 522 47 275
88 510 90 523 l5 22 -148 0 -148 0 -113 -652z"/>
<path d="M19755 18108 c-2 -7 -54 -305 -115 -663 -61 -357 -114 -658 -116
-667 -5 -17 7 -18 145 -18 83 0 151 2 151 5 0 2 52 302 115 666 63 364 115
668 115 675 0 19 -289 21 -295 2z"/>
<path d="M20295 18088 c-3 -18 -57 -324 -119 -680 l-112 -648 132 0 132 0 5
28 c3 15 33 200 67 412 35 212 65 388 69 392 3 4 42 -163 85 -370 44 -207 84
-396 89 -419 l9 -43 159 0 c87 0 159 3 159 7 0 5 52 305 115 669 63 364 115
666 115 673 0 8 -39 11 -128 11 l-127 0 -69 -417 c-38 -230 -72 -422 -76 -426
-4 -5 -45 183 -91 417 l-83 426 -163 0 -162 0 -6 -32z"/>
</g>
</svg>
